<?xml version="1.0" encoding="UTF-8"?>
<!DOCTYPE svg PUBLIC "-//W3C//DTD SVG 1.1//EN" "http://www.w3.org/Graphics/SVG/1.1/DTD/svg11.dtd">
<!-- Creator: CorelDRAW -->
<svg xmlns="http://www.w3.org/2000/svg" xml:space="preserve" width="52.2038mm" height="14.7165mm" version="1.1" style="shape-rendering:geometricPrecision; text-rendering:geometricPrecision; image-rendering:optimizeQuality; fill-rule:evenodd; clip-rule:evenodd"
viewBox="0 0 45490.36 12823.95"
 xmlns:xlink="http://www.w3.org/1999/xlink"
 xmlns:xodm="http://www.corel.com/coreldraw/odm/2003">
 <defs>
  <style type="text/css">
   <![CDATA[
    .fil2 {fill:url(#id0)}
    .fil0 {fill:url(#id1)}
    .fil1 {fill:url(#id2);fill-opacity:0.149020}
   ]]>
  </style>
  <linearGradient id="id0" gradientUnits="userSpaceOnUse" x1="-1072.34" y1="858.5" x2="15845.27" y2="13620.5">
   <stop offset="0" style="stop-opacity:1; stop-color:#F2D396"/>
   <stop offset="1" style="stop-opacity:1; stop-color:#D2A547"/>
  </linearGradient>
  <linearGradient id="id1" gradientUnits="userSpaceOnUse" xlink:href="#id0" x1="1964.92" y1="3157.86" x2="11765.81" y2="10486.68">
  </linearGradient>
  <linearGradient id="id2" gradientUnits="userSpaceOnUse" xlink:href="#id0" x1="23216.34" y1="-7247.18" x2="35372.89" y2="21671.56">
  </linearGradient>
 </defs>
 <g id="Layer_x0020_1">
  <metadata id="CorelCorpID_0Corel-Layer"/>
  <path class="fil0" d="M2860.72 8081.88c44.88,-67.1 110.23,-83.57 186.48,-128.79 85.57,-50.72 141.6,-94.72 218.81,-96.46 12.64,47.32 85.83,161.91 115.46,214.8l619.3 1091.95c42.96,74.42 82.7,142.3 125.66,219.59 63.35,114.33 100.3,149.79 100.3,244.95 -85.92,20.04 -283.47,173.76 -375.31,195.11 -23.7,-22.48 -14.03,-11.24 -34.51,-40.52l-711.41 -1254.99c-42.87,-76.77 -84.87,-146.92 -124.7,-220.55 -21.09,-38.86 -38.86,-66.14 -60.04,-105l-60.04 -120.08zm195.11 105c0,132.45 240.24,179.94 240.24,0 0,-167.4 -240.24,-151.1 -240.24,0zm1020.76 -3902.82c-47.67,-31.89 -216.98,-137.68 -270.22,-150.05 16.38,-70.23 93.94,-139.34 137.25,-193.01 57.95,-71.98 101.43,-113.28 166.79,-178.46 54.38,-54.38 107.53,-115.72 167.57,-162.69 76.68,-59.87 137.42,-125.83 203.91,-141.34 20.3,87.31 109.97,162.17 135.07,270.22 -168.01,112.58 -427.68,387.08 -540.35,555.34zm-585.41 -120.08c0,88.01 184.82,176.55 280.5,229.79 523.89,291.48 278.41,224.56 728.93,-226.04 124.96,-124.96 179.33,-176.46 320.33,-280.07 10.54,-7.76 51.59,-40.35 57.77,-47.32 90.28,-102.74 -15.42,-193.01 -131.84,-406.68 -32.68,-60.21 -62.31,-100.04 -94.55,-160.6 -112.85,-211.66 -190.75,-137.94 -442.76,63.26l-511.6 509.07c-38.78,44.01 -206.78,263.95 -206.78,318.58zm1561.11 -1050.73c209.4,-100.47 616.69,-216.54 900.68,-240.16l0 315.19c-126.44,10.54 -285.99,47.14 -400.15,80.26l-365.38 114.94c-14.99,-64.14 -72.06,-128.79 -105.7,-194.58 -14.55,-28.32 -17.69,-49.32 -29.45,-75.64zm90.02 555.43c45.31,0 361.54,-132.54 543.23,-177.33 107.7,-26.58 183.34,-37.91 305.95,-54.29 59.6,-8.02 109.62,-3.05 151.8,-28.41 35.38,-21.26 64.83,-62.65 64.83,-115.29l0 -555.34c0,-84.79 -54.64,-120.17 -135.07,-120.17 -332.96,0 -1274.07,230.14 -1324.96,417.49 -19.96,73.55 171.14,368.95 218.9,448.42 64.74,107.88 76.6,184.91 175.33,184.91zm-1921.35 2611.85l315.27 0c27.36,329.48 193.71,702.61 195.11,765.52 -82.61,19.26 -180.64,114.24 -270.22,135.15 -117.9,-245.73 -204.52,-622.96 -240.16,-900.68zm-255.15 -135.07c0,360.76 130.19,815.72 265.78,1130.21 145.96,338.45 166.35,232.93 715.42,-73.98 170.71,-95.51 -15.86,-273.88 -110.84,-665.75 -142.39,-588.28 124.09,-510.64 -750.27,-510.64 -72.59,0 -120.08,47.49 -120.08,120.17zm255.15 -540.44c12.64,-151.97 55.68,-340.19 93.15,-477.27l147.01 -423.33c70.23,16.38 201.47,105.79 285.21,150.05 -78.6,148.57 -148.31,426.03 -181.6,599 -40.78,212.27 23.96,151.54 -343.77,151.54zm-255.15 135.15c0,72.59 47.49,120.08 120.08,120.08l555.43 0c50.37,0 87.4,-19 112.32,-52.81 27.97,-38.25 27.1,-102.39 33.29,-146.83 40.69,-295.14 84.26,-447.81 188.83,-711.76 84.44,-213.23 126.27,-190.4 -334.44,-439.62 -55.77,-30.06 -175.24,-118.86 -236.15,-113.28 -222.99,20.3 -439.36,1047.68 -439.36,1344.22zm3392.45 -45.05c272.57,0 367.9,0.78 628.45,107.01 392.65,159.9 681.52,525.28 782.52,958.71l-2656.9 0c49.93,-104.05 44.88,-221.86 161.99,-408.34 59.87,-95.42 179.16,-254.19 264.56,-320.85 126.27,-98.64 190.84,-151.45 348.65,-221.77 130.88,-58.3 289.65,-114.76 470.73,-114.76zm-540.44 -870.62c0,-672.02 883.34,-866.87 1185.28,-284.6 81.65,157.55 81.65,396.57 0,554.12 -306.91,591.94 -1185.28,368.25 -1185.28,-269.52zm105.09 705.49c-297.23,69.28 -600.31,337.06 -784.96,581.05 -47.75,63.09 -88.71,130.45 -125.92,204.26 -37.47,74.42 -74.16,160.42 -100.47,244.78 -60.04,192.14 -144.3,456 95.68,456l2867.08 0c103.96,0 165.13,-67.71 165.13,-105.09 0,-151.36 -72.06,-388.38 -120.25,-495.22 -140.64,-311.7 -285.99,-479.44 -550.9,-680.04 -92.54,-70.15 -285.03,-176.72 -409.64,-205.74 34.59,-51.67 360.32,-262.9 360.32,-705.49 0,-322.16 -161.21,-574.86 -402.15,-738.77 -271.01,-184.48 -604.14,-178.72 -894.23,-32.15 -250.53,126.7 -427.33,403.28 -445.98,695.81 -11.68,184.21 11.33,305.86 85.92,455.57 45.92,92.28 88.36,147.79 156.85,218.46l30.85 29.1c32.68,29.28 48.89,42 72.67,77.47zm705.49 -2656.9c582.01,48.45 1320.17,381.67 1730.34,776.5 184.65,177.68 357.36,365.64 500.44,580.26 357.01,535.47 516.22,1097.18 516.22,1795.43 0,262.38 -97.86,375.31 225.17,375.31l-179.94 240.33c-40.08,52.37 -146.57,192.32 -195.37,225 -79.3,-118.42 -267,-326.16 -360.24,-465.33 240.68,0 195.11,-222.38 195.11,-555.43 0,-356.93 -116.68,-779.99 -235.1,-1025.72 -88.8,-184.21 -104.92,-229.44 -223.34,-407.12l-131.58 -183.6c-112.67,-138.47 -171.93,-220.2 -312.83,-332.7 -128.79,-102.83 -136.03,-138.2 -351.78,-278.59 -184.74,-120.25 -435.09,-239.55 -649.54,-311.18 -128.27,-42.79 -372.35,-105 -527.55,-117.99l0 -315.19zm-255.15 -135.07l0 555.34c0,138.9 138.55,133.32 190.58,139.69 492.08,59.43 799.16,195.28 1193.64,457.57 117.38,78.08 260.55,215.5 360.85,314.58l152.93 177.33c52.37,69.89 88.45,119.29 137.51,192.67 213.49,319.37 342.46,699.91 392.3,1093.78 6.88,54.29 0.78,103.09 8.02,157.11 18.39,136.2 -4.1,187.87 -4.1,319.37 -278.93,0 -315.71,193.1 -184.91,350.04l482.32 613.47c99.17,90.63 224.56,56.73 297.06,-38.78l480.66 -615.21c38.43,-52.63 51.06,-102.74 37.12,-160.51 -40.26,-166.44 -197.2,-149.01 -301.68,-149.01 5.58,-66.14 14.99,-36.6 14.99,-150.14 0,-544.8 -110.75,-969.52 -267.96,-1353.11 -75.72,-184.65 -176.37,-368.43 -281.2,-529.46 -116.42,-178.81 -298.89,-398.93 -452.52,-553.16 -355.27,-356.4 -924.21,-685.88 -1414.98,-821.64 -210.01,-58.12 -459.4,-120.08 -720.56,-120.08 -72.59,0 -120.08,47.49 -120.08,120.17zm-105.09 6634.75c-156.68,0 -1149.11,-276.93 -1322.7,-328.52 -84.35,-25.01 -374.27,-106.83 -448.6,-106.83 -54.81,0 -211.23,103.87 -270.13,135.15 -12.46,-53.24 -97.86,-186.48 -130.54,-244.86 -47.75,-85.57 -86.36,-152.76 -134.89,-240.33l-275.01 -490.6c48.1,-32.15 101.69,-59.43 151.01,-89.14l759.69 -441.1c357.97,-201.82 512.38,-92.02 779.82,-4.36 306.12,100.21 454.87,168.96 789.23,246.52 57.77,13.33 159.99,27.97 201.55,53.68 197.81,122.26 90.97,369.56 -54.38,369.56 -176.2,0 -300.55,-44.53 -475.09,-95.24 -193.54,-56.29 -515.61,-204.6 -515.61,20.13 0,119.99 118.95,126.27 219.85,155.37 259.5,74.85 693.02,204.95 950.96,204.95 350.39,0 708.71,-288.43 1015.62,-455.48 42.96,-23.44 72.41,-42.7 112.93,-67.18 206,-124.7 680.82,-423.06 882.9,-423.06 121.3,0 270.22,2.18 270.22,225.17 0,163.91 -126.79,210.44 -235.54,274.93 -110.41,65.44 -204.78,129.66 -315.1,195.28l-1580.02 971.7c-87.92,53.07 -236.41,134.28 -376.18,134.28zm-2716.94 -1501.07c-33.46,-63.35 -57.86,-126.09 -108.31,-176.98 -187.87,-189.36 -391.69,-30.5 -567.98,71.11 -123.04,70.93 -232.58,107.01 -259.33,281.37 -9.67,62.74 10.37,142.13 46.79,202.95l195.45 344.9c34.25,56.99 67.18,111.54 97.95,172.19 62.57,123.3 133.06,222.9 195.19,345.25l493.21 857.72c191.8,205.39 418.01,29.98 596.73,-72.85 184.48,-106.14 323.64,-213.84 191.27,-474.91 -27.62,-54.55 -57.51,-84.53 -70.41,-139.77 33.72,-17.78 52.81,-26.58 87.05,-48.28 103.78,-65.79 135.85,-32.59 327.91,23.61l461.58 123.83c172.01,42.61 805.17,231.1 924.73,231.1 239.72,0 348.91,-1.39 579.31,-141.25 122.08,-74.07 233.97,-147.79 352.22,-218.2l1392.23 -859.37c239.46,-151.1 543.32,-258.46 543.32,-597.52 0,-264.3 -197.37,-480.32 -495.39,-480.32 -178.9,0 -408.77,98.56 -524.67,165.83 -144.04,83.57 -294.79,167.92 -436.83,253.66l-435.18 255.23c-93.24,53.33 -362.33,220.64 -449.64,240.94 35.2,-150.93 30.06,-47.67 30.06,-240.16 0,-149.71 -130.27,-286.6 -225.43,-344.99 -85.4,-52.46 -333.05,-90.63 -458.88,-126.53 -151.62,-43.31 -295.23,-91.76 -428.64,-141.78 -416.88,-156.24 -692.76,-274.4 -1113.56,-37.12 -130.19,73.37 -853.01,509.86 -940.76,530.33z"/>
  <path class="fil1" d="M9407.54 211.23l34128.88 0c1074.7,0 1953.94,879.5 1953.94,1953.94l0 8493.53c0,1074.44 -879.42,1953.94 -1953.94,1953.94l-34288.44 0c125.39,-60.21 207.57,-112.93 207.57,-147.96 0,-147.96 1406.53,-312.57 1406.53,-312.57l697.21 -673.16c0,0 793.41,-1262.31 829.49,-1334.37 36.08,-72.06 60.13,-1334.37 60.13,-1334.37l12.03 -3738.65 -84.18 -2572.55 -1105.89 -1526.78 -1863.31 -760.99z"/>
  <path class="fil2" d="M9236.31 435.7l-5775.2 0c-831.66,0 -1588.13,340.54 -2136.5,888.91 -548.37,548.37 -888.91,1304.75 -888.91,2136.41l0 5901.9c0,831.66 340.54,1588.04 888.91,2136.41 548.37,548.37 1304.83,888.91 2136.5,888.91l5775.2 0c831.66,0 1588.04,-340.54 2136.41,-888.91 548.37,-548.37 888.83,-1304.75 888.83,-2136.41l0 -5901.9c0,-831.66 -340.46,-1588.04 -888.83,-2136.41 -548.37,-548.37 -1304.75,-888.91 -2136.41,-888.91zm-5775.2 -435.7l5775.2 0c952,0 1817.39,389.34 2444.54,1016.49 627.06,627.06 1016.4,1492.53 1016.4,2444.54l0 5901.9c0,952 -389.34,1817.48 -1016.4,2444.54 -627.15,627.15 -1492.53,1016.49 -2444.54,1016.49l-5775.2 0c-952,0 -1817.48,-389.34 -2444.62,-1016.49 -627.15,-627.15 -1016.49,-1492.53 -1016.49,-2444.54l0 -5901.9c0,-952 389.34,-1817.39 1016.49,-2444.54 627.15,-627.15 1492.62,-1016.49 2444.62,-1016.49z"/>
 </g>
</svg>
