
<!-- Creator: CorelDRAW -->
<svg xmlns="http://www.w3.org/2000/svg" xml:space="preserve" width="8.4986mm" height="8.5158mm" version="1.1" style="shape-rendering:geometricPrecision; text-rendering:geometricPrecision; image-rendering:optimizeQuality; fill-rule:evenodd; clip-rule:evenodd"
viewBox="0 0 124.87 125.12"
 xmlns:xlink="http://www.w3.org/1999/xlink"
 xmlns:xodm="http://www.corel.com/coreldraw/odm/2003">
 <defs>
  <style type="text/css">
   <![CDATA[
    .fil5 {fill:url(#id0)}
    .fil3 {fill:url(#id1)}
    .fil2 {fill:url(#id2)}
    .fil9 {fill:url(#id3)}
    .fil6 {fill:url(#id4)}
    .fil4 {fill:url(#id5)}
    .fil1 {fill:url(#id6)}
    .fil7 {fill:url(#id7)}
    .fil8 {fill:url(#id8)}
    .fil0 {fill:url(#id9)}
   ]]>
  </style>
  <linearGradient id="id0" gradientUnits="userSpaceOnUse" x1="66.56" y1="63.11" x2="87.98" y2="79.68">
   <stop offset="0" style="stop-opacity:1; stop-color:#F2D396"/>
   <stop offset="1" style="stop-opacity:1; stop-color:#D2A547"/>
  </linearGradient>
  <linearGradient id="id1" gradientUnits="userSpaceOnUse" xlink:href="#id0" x1="66.44" y1="84.44" x2="88.1" y2="100.94">
  </linearGradient>
  <linearGradient id="id2" gradientUnits="userSpaceOnUse" xlink:href="#id0" x1="21.39" y1="12.8" x2="53.84" y2="36.15">
  </linearGradient>
  <linearGradient id="id3" gradientUnits="userSpaceOnUse" xlink:href="#id0" x1="82.23" y1="15.76" x2="112.04" y2="45.95">
  </linearGradient>
  <linearGradient id="id4" gradientUnits="userSpaceOnUse" xlink:href="#id0" x1="92.45" y1="106.06" x2="113.11" y2="121.8">
  </linearGradient>
  <linearGradient id="id5" gradientUnits="userSpaceOnUse" xlink:href="#id0" x1="66.52" y1="105.63" x2="87.95" y2="122.3">
  </linearGradient>
  <linearGradient id="id6" gradientUnits="userSpaceOnUse" xlink:href="#id0" x1="57.3" y1="-0.37" x2="137.48" y2="67.31">
  </linearGradient>
  <linearGradient id="id7" gradientUnits="userSpaceOnUse" xlink:href="#id0" x1="92.91" y1="82.33" x2="113.3" y2="102.87">
  </linearGradient>
  <linearGradient id="id8" gradientUnits="userSpaceOnUse" xlink:href="#id0" x1="92.74" y1="61.06" x2="113.47" y2="81.6">
  </linearGradient>
  <linearGradient id="id9" gradientUnits="userSpaceOnUse" xlink:href="#id0" x1="-13.69" y1="64.08" x2="80.5" y2="113.41">
  </linearGradient>
 </defs>
 <g id="Layer_x0020_1">
  <metadata id="CorelCorpID_0Corel-Layer"/>
  <g id="_2681616832128">
   <path class="fil0" d="M4.52 70.6c6.85,-1.6 5.56,3.02 3.27,3.02 -1.56,0 -4.89,0.33 -3.27,-3.02zm4.28 -13.35l14.11 0c0.64,0 4.03,3.39 4.03,4.03l0 19.65 -18.14 0 0 -3.27c7.04,-1.64 5.76,-10.86 0,-11.34l0 -9.07zm19.15 -11.34l14.86 0c5.43,0 10.58,5.4 10.58,11.34l0 16.12c0,2.82 -1.77,5.27 -4.03,5.79l0 -18.14c0.01,-1.96 -0.16,-4.03 -2.02,-4.03 -2.83,0 -2.27,3.47 -2.27,6.3l0 51.89c0,1.42 0.18,2.95 -0.31,3.97 -1.34,2.79 -6.27,2.41 -6.72,-0.97 -0.5,-3.78 0.61,-36.65 -0.39,-38.66 -0.71,-1.44 -2.76,-1.36 -3.57,-0.28 -0.73,0.96 -0.34,17.51 -0.34,19.06 0,3.61 0,7.22 0,10.83 0,3.14 0.7,8.38 -0.81,10.27 -2.04,2.55 -5.9,1.53 -6.44,-1.26 -0.26,-1.37 -0.05,-30.07 -0.05,-32.95 1.14,-0.09 2.37,-0.28 3.13,-0.9 0.84,-0.69 1.4,-1.47 1.4,-2.88l0 -21.66c0,-0.81 -3.8,-4.45 -4.59,-5.23 -2.22,-2.22 -4.26,-1.57 -8.51,-1.57 0.81,-3.48 5.72,-7.05 10.08,-7.05zm-14.61 7.05c-10.23,0 -8.57,0.72 -8.57,13.35 -2.99,0.25 -6.93,5 -3.32,9.37 0.92,1.12 2.02,1.34 3.32,1.97 0,3.71 -0.85,7.56 5.29,7.56l12.34 0 0 32.5c0,7.03 9.87,9.61 13.1,4.79 1.58,1.06 2.39,2.19 4.8,2.52 2.21,0.31 3.96,-0.11 5.57,-1.22 3.46,-2.38 3.48,-5.47 3.48,-11.13 0,-9.74 0,-19.48 0,-29.22 4.24,-0.99 8.06,-4.65 8.06,-9.82l0 -16.88c0,-6.58 -5.12,-12.45 -10.74,-14.2 -4.01,-1.25 -10.63,-0.91 -15.21,-0.91 -7.75,0 -13.66,2.21 -16.97,8.73 -0.48,0.96 -0.75,1.72 -1.17,2.61z"/>
   <path class="fil1" d="M69.51 31.31c0,-6.32 0.9,-11.34 4.57,-16.34 0.48,-0.65 0.71,-1.14 1.28,-1.74 3.08,-3.25 4.1,-4.39 8.5,-6.61 12.07,-6.09 27.76,-1.15 34.18,11.67 5.08,10.15 2.84,21.65 -5.27,29.83 -9.04,9.12 -25.13,9.79 -35.26,0.12 -1.72,-1.64 -4.52,-0.75 -8.05,-0.35 -1.6,0.18 -3.11,0.23 -4.49,0.55 0.31,-1.17 5.79,-9.52 5.79,-10.33 0,-1.09 -1.26,-3.45 -1.26,-6.8zm-4.03 -3.27c0,2.61 -0.15,4.25 0.32,6.74 0.76,4.06 1.37,1.57 -1.82,7.13 -0.85,1.48 -1.67,2.87 -2.52,4.28 -4.54,7.57 -2.27,7.07 6.46,5.96 1.49,-0.19 3.51,-0.31 5.22,-0.58 2.17,-0.34 1.89,0.11 3.91,1.67 17.08,13.12 43.64,4.18 47.48,-19.54 0.19,-1.15 0.13,-2.34 0.29,-3.51 0.17,-1.23 -0.36,-5.44 -0.6,-6.49 -2.11,-9.16 -7.63,-16.45 -15.92,-20.6 -11.42,-5.72 -25.29,-3.3 -34.2,5.61 -4.68,4.68 -8.63,12.05 -8.63,19.34z"/>
   <path class="fil2" d="M27.94 22.24c0,-4.34 3.3,-7.81 7.31,-7.81l1.26 0c3.25,0 6.8,3.56 6.8,6.8l0 1.51c0,3.65 -3.59,8.56 -7.05,8.56l-1.01 0c-3.79,0 -7.31,-5.09 -7.31,-9.07zm-4.03 -0.5c0,7.03 5.34,13.6 11.08,13.6 3.9,0 6.53,-1.06 9.11,-4.24 7.9,-9.77 0.41,-20.7 -7.34,-20.7 -2.76,0 -3.92,-0.1 -6.56,1.25 -1.46,0.75 -1.95,1.34 -3.08,2.46 -1.69,1.68 -3.21,4.34 -3.21,7.62z"/>
   <path class="fil3" d="M79.33 95.79l-7.31 0 0 -8.06 8.06 0 0 7.31c0,0.58 -0.18,0.76 -0.76,0.76zm-11.59 -9.32l0 10.58c0,1.89 0.88,2.77 2.77,2.77l10.83 0c1.89,0 2.77,-0.88 2.77,-2.77l0 -11.08c0,-1.71 -1.28,-2.52 -3.02,-2.52l-10.33 0c-2.07,0 -3.02,0.95 -3.02,3.02z"/>
   <path class="fil4" d="M72.03 108.89l8.06 0 0 8.06 -8.06 0 0 -8.06zm-4.28 -1.26c0,2.36 -0.35,11.11 0.42,12.43 0.25,0.43 0.79,0.93 1.34,0.93l12.59 0c1.3,0 2.02,-1.05 2.02,-2.27l0 -11.08c0,-1.57 -0.72,-2.77 -2.27,-2.77l-11.84 0c-1.55,0 -2.27,1.2 -2.27,2.77z"/>
   <path class="fil5" d="M72.03 66.32l8.06 0 0 8.06 -8.06 0 0 -8.06zm-4.28 -1.26l0 10.58c0,1.21 0.69,2.77 1.76,2.77l12.85 0c1.07,0 1.76,-1.56 1.76,-2.77l0 -10.58c0,-1.57 -0.72,-2.77 -2.27,-2.77l-11.84 0c-1.55,0 -2.27,1.2 -2.27,2.77z"/>
   <path class="fil6" d="M93.69 107.13c0,1.79 3.81,4.34 4.79,5.79 -1.18,1.76 -4.79,3.77 -4.79,6.05 0,0.83 1.17,1.76 2.02,1.76 1.09,0 2.32,-1.79 3.1,-2.44 0.66,-0.55 0.86,-0.62 1.5,-1.27 0.54,-0.55 0.84,-0.92 1.45,-1.33 0.78,1.16 2.51,2.61 3.59,3.72 2.35,2.42 3.97,0.99 3.97,-0.95 0,-1.88 -3.71,-3.94 -4.79,-5.54 1.84,-2.74 4.79,-3.25 4.79,-6.3 0,-1.18 -1.29,-1.51 -2.27,-1.51 -1.14,0 -4.37,4.01 -5.54,4.79 -1.45,-0.97 -4.01,-4.79 -5.79,-4.79 -1.22,0 -2.02,0.8 -2.02,2.02z"/>
   <path class="fil7" d="M98.22 94.28c-3.51,-5.25 -6.55,-4.14 -6.55,-2.02 0,1.54 5.78,6.8 6.3,6.8 2.07,0 2.61,-1.23 4.09,-2.71l6.42 -6.42c0.85,-0.85 2.83,-2.3 2.83,-3.72 0,-1.22 -0.8,-2.01 -2.02,-2.01 -2.02,0 -8.26,8.18 -11.08,10.08z"/>
   <path class="fil8" d="M98.48 72.87c-1.08,-0.73 -3.28,-3.78 -4.53,-3.78 -1.22,0 -2.27,0.83 -2.27,2.02 0,1.38 5.38,6.8 6.8,6.8 1.2,0 8.43,-7.8 9.76,-9.13 1.51,-1.51 3.09,-2.37 3.09,-3.97 0,-1.19 -1.02,-2.02 -2.02,-2.02 -1.49,0 -8.46,8.49 -10.83,10.08z"/>
  </g>
  <path class="fil9" d="M87.05 28.91l0 -9.13 -1.15 0c-0.66,0 -1.2,-0.54 -1.2,-1.2l0.1 0c4.65,0 9.3,0 13.94,0.01 0.53,0 1.05,0.15 1.54,0.34 1.31,0.51 2.27,1.42 2.91,2.66 0.31,0.61 0.48,1.28 0.53,1.97 0.06,0.89 -0.07,1.74 -0.43,2.56 -0.45,1.03 -1.15,1.84 -2.1,2.44 -0.08,0.05 -0.16,0.1 -0.24,0.18 0.08,0 0.17,0.01 0.25,0.01 0.79,0.03 1.58,0.06 2.37,0.08 1.16,0.03 2.23,0.35 3.18,1.03 1.17,0.83 1.95,1.93 2.29,3.34 0.16,0.64 0.2,1.28 0.14,1.92 -0.18,1.83 -1.08,3.23 -2.58,4.26 -0.75,0.51 -1.6,0.79 -2.5,0.89 -0.98,0.11 -1.94,-0.02 -2.85,-0.41 -0.22,-0.09 -0.4,-0.1 -0.63,-0.01 -0.51,0.22 -1.05,0.36 -1.61,0.41 -0.19,0.02 -0.37,0.02 -0.56,0.02 -3.94,0 -7.88,0 -11.82,0 -0.4,0 -0.8,0 -1.2,-0.03 -0.61,-0.04 -1.19,-0.22 -1.75,-0.47 -1.04,-0.47 -1.88,-1.2 -2.49,-2.16 -0.47,-0.75 -0.77,-1.56 -0.85,-2.45 -0.06,-0.71 -0.03,-1.42 0.16,-2.11 0.26,-0.98 0.76,-1.82 1.47,-2.54 0.71,-0.71 1.54,-1.21 2.51,-1.48 0.69,-0.2 1.4,-0.25 2.12,-0.19 0.13,0.01 0.43,0.04 0.43,0.04zm1.22 1.96l0 8.34 4.66 0 0 -5.08 -4.66 -3.26zm5.9 4.16l0 4.19 6.01 0 -6.01 -4.19zm-1.24 -2.53l0 -8.08c0,-2.47 -1.93,-4.49 -4.36,-4.63 -0.09,-0.01 -0.19,-0.01 -0.28,-0.01l-0.02 0 0 9.47 4.66 3.24zm9.57 6.7c0,0 0.59,0.02 0.89,0.02 2.56,0 4.64,-2.08 4.64,-4.64 0,-2.56 -2.08,-4.64 -4.64,-4.64 -0.28,0 -0.55,0.02 -0.82,0.07 1.5,0.97 2.5,2.65 2.5,4.57 0,1.95 -1.03,3.66 -2.57,4.62zm-15.44 0.02l-0 -9.19c-0.29,-0.06 -0.59,-0.09 -0.89,-0.09 -2.56,0 -4.64,2.08 -4.64,4.64 0,2.56 2.08,4.64 4.64,4.64 0.3,0 0.89,0 0.89,0z"/>
 </g>
</svg>
